/* XPM */
static char *bitcoin128[] = {
/* columns rows colors chars-per-pixel */
"128 128 55 1 ",
"  c #6A5E3E",
". c #6F613B",
"X c #766538",
"o c #4E4D4B",
"O c #4B4B4C",
"+ c #4A4A4D",
"@ c #4A4B4D",
"# c #4B4B4D",
"$ c #48494E",
"% c #49494E",
"& c #494A4E",
"* c #4A4A4E",
"= c #4C4B4D",
"- c #524F4A",
"; c #565247",
": c #5A5445",
"> c #595446",
", c #5E5644",
"< c #565148",
"1 c #565248",
"2 c #625942",
"3 c #655B40",
"4 c #665B40",
"5 c #665C40",
"6 c #9D7C25",
"7 c #90742B",
"8 c #856E31",
"9 c #AC851D",
"0 c #B0881B",
"q c #B1891B",
"w c #CC990E",
"e c #D39D0B",
"r c #D39E0A",
"t c #D49E09",
"y c #C19213",
"u c #C19313",
"i c #C29312",
"p c #C39312",
"a c #C29313",
"s c #C69511",
"d c #C89610",
"f c #DFA505",
"g c #D9A108",
"h c #E2A703",
"j c #E3A703",
"k c #E5A801",
"l c #E7A901",
"z c #E7AA00",
"x c #E5A802",
"c c #E8A900",
"v c #E8AA00",
"b c #E9AA00",
"n c #E9AB00",
"m c #EAAB00",
"M c None",
/* pixels */
"MMMMMMMMMMMMMMMMMMMMMMMMMMMMMMMMMMMMMMMMMMMMMMMMMMMMMMMMMMMMMMMMMMMMMMMMMMMMMMMMMMMMMMMMMMMMMMMMMMMMMMMMMMMMMMMMMMMMMMMMMMMMMMMM",
"MMMMMMMMMMMMMMMMMMMMMMMMMMMMMMMMMMMMMMMMMMMMMMMMMMMMMMMMMMMMMMMMMMMMMMMMMMMMMMMMMMMMMMMMMMMMMMMMMMMMMMMMMMMMMMMMMMMMMMMMMMMMMMMM",
"MMMMMMMMMMMMMMMMMMMMMMMMMMMMMMMMMMMMMMMMMMMMMMMMMMMMMMMMMMMMMMMMMMMMMMMMMMMMMMMMMMMMMMMMMMMMMMMMMMMMMMMMMMMMMMMMMMMMMMMMMMMMMMMM",
"MMMMMMMMMMMMMMMMMMMMMMMMMMMMMMMMMMMMMMMMMMMMMMMMMMMMMMMMMMMMMMMMMMMMMMMMMMMMMMMMMMMMMMMMMMMMMMMMMMMMMMMMMMMMMMMMMMMMMMMMMMMMMMMM",
"MMMMMMMMMMMMMMMMMMMMMMMMMMMMMMMMMMMMMMMMMMMMMMMMMMMMMMMMMMMMMMMMMMMMMMMMMMMMMMMMMMMMMMMMMMMMMMMMMMMMMMMMMMMMMMMMMMMMMMMMMMMMMMMM",
"MMMMMMMMMMMMMMMMMMMMMMMMMMMMMMMMMMMMMMMMMMMMMMMMMMMMMMMMMMMMMMMMMMMMMMMMMMMMMMMMMMMMMMMMMMMMMMMMMMMMMMMMMMMMMMMMMMMMMMMMMMMMMMMM",
"MMMMMMMMMMMMMMMMMMMMMMMMMMMMMMMMMMMMMMMMMMMMMMMMMMMMMMMMMMMMMMMMMMMMMMMMMMMMMMMMMMMMMMMMMMMMMMMMMMMMMMMMMMMMMMMMMMMMMMMMMMMMMMMM",
"MMMMMMMMMMMMMMMMMMMMMMMMMMMMMMMMMMMMMMMMMMMMMMMMMMMMMMMMMMMMMMMMMMMMMMMMMMMMMMMMMMMMMMMMMMMMMMMMMMMMMMMMMMMMMMMMMMMMMMMMMMMMMMMM",
"MMMMMMMMMMMMMMMMMMMMMMMMMMMMMMMMMMMMMMMMMMMMMMMMMMMMMMMMMMMMMMMMMMMMMMMMMMMMMMMMMMMMMMMMMMMMMMMMMMMMMMMMMMMMMMMMMMMMMMMMMMMMMMMM",
"MMMMMMMMMMMMMMMMMMMMMMMMMMMMMMMMMMMMMMMMMMMMMMMMMMMMMMMMMMMMMMMMMMMMMMMMMMMMMMMMMMMMMMMMMMMMMMMMMMMMMMMMMMMMMMMMMMMMMMMMMMMMMMMM",
"MMMMMMMMMMMMMMMMMMMMMMMMMMMMMMMMMMMMMMMMMMMMMMMMMMMMMMMMMMMMMMMMMMMMMMMMMMMMMMMMMMMMMMMMMMMMMMMMMMMMMMMMMMMMMMMMMMMMMMMMMMMMMMMM",
"MMMMMMMMMMMMMMMMMMMMMMMMMMMMMMMMMMMMMMMMMMMMMMMMMMMMMMMMMMMMMMMMMMMMMMMMMMMMMMMMMMMMMMMMMMMMMMMMMMMMMMMMMMMMMMMMMMMMMMMMMMMMMMMM",
"MMMMMMMMMMMMMMMMMMMMMMMMMMMMMMMMMMMMMMMMMMMMMMMMMMMMMMMMMMMMMMMMMMMMMMMMMMMMMMMMMMMMMMMMMMvvMMMMMMMMMMMMMMMMMMMMMMMMMMMMMMMMMMMM",
"MMMMMMMMMMMMMMMMMMMMMMMMMMMMMMMMMMMMMMMMMMMMMMMMMMMMMMMMMMMMMMMMMMMMMMMMMMMMMMMMMMMMMMMMMvvvvMMMMMMMMMMMMMMMMMMMMMMMMMMMMMMMMMMM",
"MMMMMMMMMMMMMMMMMMMMMMMMMMMMMMMMMMMMMMMMMMMMMMMMMMMMMMMMMMMMMMMMMMMMMMMMMMMMMMMMMMMMMMMMvvvvvvvMMMMMMMMMMMMMMMMMMMMMMMMMMMMMMMMM",
"MMMMMMMMMMMMMMMMMMMMMMMMMMMMMMMMMMMMMMMMMMMMMMMMMMMMMMMMMMMMMMMMMMMMMMMMMMMMMMMMMMMMMMMvvvvvvvvvMMMMMMMMMMMMMMMMMMMMMMMMMMMMMMMM",
"MMMMMMMMMMMMMMMMMMMMMMMMMMMMMMMMMMMMMMMMMMMMMMMMMMMMMMMMMMMMMMMMMMMMMMMMMMMMMMMMMMMMMMvvvvvvvvvvvvMMMMMMMMMMMMMMMMMMMMMMMMMMMMMM",
"MMMMMMMMMMMMMMMMMMMMMMMMMMMMMMMMMMMMMMMMMMMMMMMMMMMMMMMMMMMMMMMMMMMMMMMMMMMMMMMMMMMMMMvvvvvvvvvvvvvMMMMMMMMMMMMMMMMMMMMMMMMMMMMM",
"MMMMMMMMMMMMMMMMMMMMMMMMMMMMMMMMMMMMMMMMMMMMMMMMMMMMMMMMMMMMMMMMMMMMMMMMMMMMMMMMMMMMMvvvvvvvvvvvvvvvvMMMMMMMMMMMMMMMMMMMMMMMMMMM",
"MMMMMMMMMMMMMMMMMMMMMMMMMMMMMMMMMMMMMMMMMMMMMMMMMMMMMMMMMMMMMMMMMMMMMMMMMMMMMMMMMMMMvvvvvvvvvvvvvvvvvvMMMMMMMMMMMMMMMMMMMMMMMMMM",
"MMMMMMMMMMMMMMMMMMMMMMMMMMMMMMMMMMMMMMMMMMMMMMMMMMMMMMMMMMMMMMMMMMMMMMMMMMMMMMMMMMMvvvvvvvvvvvvvvvvvvvvvMMMMMMMMMMMMMMMMMMMMMMMM",
"MMMMMMMMMMMMMMMMMMMMMMMMMMMMMMMMMMMMMMMMMMMMMMMMMMMMMMMMMMMMMMMMMMMMMMMMMMMMMMMMMMcvvvvvvvvvvvvvvvvvvvvMMMMMMMMMMMMMMMMMMMMMMMMM",
"MMMMMMMMMMMMMMMMMMMMMMMMMMMMMMMMMMMMMMMMMMMMMMMMMMMMMM##################MMMMMMMMMMvvvvvvvvvvvvvvvvvvvvvMMMMMMMMMMMMMMMMMMMMMMMMM",
"MMMMMMMMMMMMMMMMMMMMMMMMMMMMMMMMMMMMMMMMMMMMMMMMMM##########################MMMMMvvvvvvvvvvvvvvvvvvvvvMMMMMMMMMMMMMMMMMMMMMMMMMM",
"MMMMMMMMMMMMMMMMMMMMMMMMMMMMMMMMMMMMMMMMMMMMMMM###############################%MvvvvvvvvvvvvvvvvvvvvvMMMMMMMMMMMMMMMMMMMMMMMMMMM",
"MMMMMMMMMMMMMMMMMMMMMMMMMMMMMMMMMMMMMMMMMMMMM################################@-9bvvvvvvvvvvvvvvvvvvvvMMMMMMMMMMMMMMMMMMMMMMMMMMM",
"MMMMMMMMMMMMMMMMMMMMMMMMMMMMMMMMMMMMMMMMMM###################################=7jvvvvvvvvvvvvvvvvvvvvMMMMMMMMMMMMMMMMMMMMMMMMMMMM",
"MMMMMMMMMMMMMMMMMMMMMMMMMMMMMMMMMMMMMMMMM###################################*XgnvvvvvvvvvvvvvvvvvvvMMMMMMMMMMMMMMMMMMMMMMMMMMMMM",
"MMMMMMMMMMMMMMMMMMMMMMMMMMMMMMMMMMMMMMM################MMMMMMMMMMMMMMM#####*2dmvvvvvvvvvvvvvvvvvvvMMMMMMMMMMMMMMMMMMMMMMMMMMMMMM",
"MMMMMMMMMMMMMMMMMMMMMMMMMMMMMMMMMMMMMM#############MMMMMMMMMMMMMMMMMMMMMMM#<qnvvvvvvvvvvvvvvvvvvvzMMMMMMMMMMMMMMMMMMMMMMMMMMMMMM",
"MMMMMMMMMMMMMMMMMMMMMMMMMMMMMMMMMMMM#############MMMMMMMMMMMMMMMMMMMMMMMMMMtkvvvvvvvvvvvvvvvvvvvvMMMMMMMMMMMMMMMMMMMMMMMMMMMMMMM",
"MMMMMMMMMMMMMMMMMMMMMMMMMMMMMMMMMMM###########MMMMMMMMMMMMMMMMMMMMMMMMMMMMMbvvvvvvvvvvvvvvvvvvvvMMMMMMMMMMMMMMMMMMMMMMMMMMMMMMMM",
"MMMMMMMMMMMMMMMMMMMMMMMMMMMMMMMMMM##########MMMMMMMMMMMMMMMMMMMMMMMMMMMMMMvvvvvvvvvvvvvvvvvvvvvMMMMMMMMMMMMMMMMMMMMMMMMMMMMMMMMM",
"MMMMMMMMMMMMMMMMMMMMMMMMMMMMMMMMM##########MMMMMMMMMMMMMMMMMMMMMMMMMMMMMMvvvvvvvvvvvvvvvvvvvvvMMMMMMMMMMMMMMMMMMMMMMMMMMMMMMMMMM",
"MMMMMMMMMMMMMMMMMMMMMMMMMMMMMMM+#########MMMMMMMMMMMMMMMMMMMMMMMMMMMMMMMMvvvvvvvvvvvvvvvvvvvv0MMMMMMMMMMMMMMMMMMMMMMMMMMMMMMMMMM",
"MMMMMMMMMMMMMMMMMMMMMMMMMMMMMMM#########MMMMMMMMMMMMMMMMMMMMMMMMMMMMMMMMvvvvvvvvvvvvvvvvvvvna,&MMMMMMMMMMMMMMMMMMMMMMMMMMMMMMMMM",
"MMMMMMMMMMMMMMMMMMMMMMMMMMMMMM#########MMMMMMMMMMMMMMMMMMMMMMMMMMMMMMMMvvvvvvvvvvvvvvvvvvvnr.&##MMMMMMMMMMMMMMMMMMMMMMMMMMMMMMMM",
"MMMMMMMMMMMMMMMMMMMMMMMMMMMMM########MMMMMMMMMMMMMMMMMMMMMMMMMMMMMMMMMvvvvvvvvvvvvvvvvvvvbf8@####MMMMMMMMMMMMMMMMMMMMMMMMMMMMMMM",
"MMMMMMMMMMMMMMMMMMMMMMMMMMMM########MMMMMMMMMMMMMMMMMMMMMMMMMMMMMMMMMvvvvvvvvvvvvvvvvvvvvl6o######MMMMMMMMMMMMMMMMMMMMMMMMMMMMMM",
"MMMMMMMMMMMMMMMMMMMMMMMMMMM########MMMMMMMMMMMMMMMMMMMMMMMMMMMMMMMMMMvvvvvvvvvvvvvvvvvvvvx,+#######MMMMMMMMMMMMMMMMMMMMMMMMMMMMM",
"MMMMMMMMMMMMMMMMMMMMMMMMMM+#######MMMMMMMMMMMMMMMMMMMMMMMMMMMMMMMMMMvvvvvvvvvvvvvvvvvvvvvMMO#######MMMMMMMMMMMMMMMMMMMMMMMMMMMMM",
"MMMMMMMMMMMMMMMMMMMMMMMMMM########MMMMMMMMMMMMMMMMMMMMMMMMMMMMMMMMMvvvvvvvvvvvvvvvvvvvvvMMMM########MMMMMMMMMMMMMMMMMMMMMMMMMMMM",
"MMMMMMMMMMMMMMMMMMMMMMMMM########MMMMMMMMMMMMMMMMMMMMMMMMMMMMMMMMMvvvvvvvvvvvvvvvvvvvvvMMMMMM########MMMMMMMMMMMMMMMMMMMMMMMMMMM",
"MMMMMMMMMMMMMMMMMMMMMMMMM#######MMMMMMMvvMMMMMMMMMMMMMMMMMMMMMMMMMvvvvvvvvvvvvvvvvvvvvzMMMMMMM#######MMMMMMMMMMMMMMMMMMMMMMMMMMM",
"MMMMMMMMMMMMMMMMMMMMMMMM#######MMMMMMMMvvvvMMMMMMMMMMMMMMMMMMMMMMvvvvvvvvvvvvvvvvvvvvvMMMMMMMM########MMMMMMMMMMMMMMMMMMMMMMMMMM",
"MMMMMMMMMMMMMMMMMMMMMMM########MMMMMMMMvvvvvvMMMMMMMMMMMMMMMMMMMvvvvvvvvvvvvvvvvvvvvvMMMMMMMMMM#######MMMMMMMMMMMMMMMMMMMMMMMMMM",
"MMMMMMMMMMMMMMMMMMMMMMM#######MMMMMMMMvvvvvvvvvvMMMMMMMMMMMMMMMvvvvvvvvvvvvvvvvvvvvvMMMMMMMMMMMM#######MMMMMMMMMMMMMMMMMMMMMMMMM",
"MMMMMMMMMMMMMMMMMMMMMM+######MMMMMMMMMvvvvvvvvvvvvMMMMMMMMMMMMMvvvvvvvvvvvvvvvvvvvvMMMMMMMMMMMMM#######MMMMMMMMMMMMMMMMMMMMMMMMM",
"MMMMMMMMMMMMMMMMMMMMMM#######MMMMMMMMMvvvvvvvvvvvvvvMMMMMMMMMMvvvvvvvvvvvvvvvvvvvvvMMMMMMMMMMMMMM#######MMMMMMMMMMMMMMMMMMMMMMMM",
"MMMMMMMMMMMMMMMMMMMMMM######MMMMMMMMMMvvvvvvvvvvvvvvvvMMMMMMMvvvvvvvvvvvvvvvvvvvvvMMMMMMMMMMMMMMM#######MMMMMMMMMMMMMMMMMMMMMMMM",
"MMMMMMMMMMMMMMMMMMMMM#######MMMMMMMMMvvvvvvvvvvvvvvvvvvvvMMMvvvvvvvvvvvvvvvvvvvvvMMMMMMMMMMMMMMMMM#######MMMMMMMMMMMMMMMMMMMMMMM",
"MMMMMMMMMMMMMMMMMMMMM######MMMMMMMMMMvvvvvvvvvvvvvvvvvvvvvvvvvvvvvvvvvvvvvvvvvvvMMMMMMMMMMMMMMMMMM#######MMMMMMMMMMMMMMMMMMMMMMM",
"MMMMMMMMMMMMMMMMMMMMO######MMMMMMMMMMvvvvvvvvvvvvvvvvvvvvvvvvvvvvvvvvvvvvvvvvvvvMMMMMMMMMMMMMMMMMMM######MMMMMMMMMMMMMMMMMMMMMMM",
"MMMMMMMMMMMMMMMMMMMM#######MMMMMMMMMMvvvvvvvvvvvvvvvvvvvvvvvvvvvvvvvvvvvvvvvvvvMMMMMMMMMMMMMMMMMMMM#######MMMMMMMMMMMMMMMMMMMMMM",
"MMMMMMMMMMMMMMMMMMMM######MMMMMMMMMMvvvvvvvvvvvvvvvvvvvvvvvvvvvvvvvvvvvvvvvvvvMMMMMMMMMMMMMMMMMMMMM#######MMMMMMMMMMMMMMMMMMMMMM",
"MMMMMMMMMMMMMMMMMMMM######MMMMMMMMMMvvvvvvvvvvvvvvvvvvvvvvvvvvvvvvvvvvvvvvvvvMMMMMMMMMMMMMMMMMMMMMMM######MMMMMMMMMMMMMMMMMMMMMM",
"MMMMMMMMMMMMMMMMMMMO######MMMMMMMMMMvvvvvvvvvvvvvvvvvvvvvvvvvvvvvvvvvvvvvvvvvMMMMMMMMMMMMMMMMMMMMMMM######MMMMMMMMMMMMMMMMMMMMMM",
"MMMMMMMMMMMMMMMMMMM#######MMMMMMMMMMvvvvvvvvvvvvvvvvvvvvvvvvvvvvvvvvvvvvvvvvMMMMMMMMMMMMMMMMMMMMMMMM######MMMMMMMMMMMMMMMMMMMMMM",
"MMMMMMMMMMMMMMMMMMM######MMMMMMMMMMvvvvvvvvvvvvvvvvvvvvvvvvvvvvvvvvvvvvvvvvMMMMMMMMMMMMMMMMMMMMMMMMM#######MMMMMMMMMMMMMMMMMMMMM",
"MMMMMMMMMMMMMMMMMMM######MMMMMMMMMMvvvvvvvvvvvvvvvvvvvvvvvvvvvvvvvvvvvvvvvvvMMMMMMMMMMMMMMMMMMMMMMMMM######MMMMMMMMMMMMMMMMMMMMM",
"MMMMMMMMMMMMMMMMMMM######MMMMMMMMMMvvvvvvvvvvvvvvvvvvvvvvvvvvvvvvvvvvvvvvvvvvvMMMMMMMMMMMMMMMMMMMMMMM######MMMMMMMMMMMMMMMMMMMMM",
"MMMMMMMMMMMMMMMMMMM######MMMMMMMMMvvvvvvvvvvvvvvvvvvvvvvvvvvvvvvvvvvvvvvvvvvvvvvvMMMMMMMMMMMMMMMMMMMM######MMMMMMMMMMMMMMMMMMMMM",
"MMMMMMMMMMMMMMMMMMM######MMMMMMMMMvvvvvvvvvvvvvvvvvvvvvvvvvvvvvvvvvvvvvvvvvvvvvvvvvMMMMMMMMMMMMMMMMMM######MMMMMMMMMMMMMMMMMMMMM",
"MMMMMMMMMMMMMMMMMM#######MMMMMMMMMMzvvvvvvvvvvvvvvvvvvvvvvvvvvvvvvvvvvvvvvvvvvvvvvvvvMMMMMMMMMMMMMMMM######MMMMMMMMMMMMMMMMMMMMM",
"MMMMMMMMMMMMMMMMMM#######MMMMMMMMMMMvvvvvvvvvvvvvvvvvvvvvvvvvvvvvvvvvvvvvvvvvvvvvvvvvvvMMMMMMMMMMMMMM######MMMMMMMMMMMMMMMMMMMMM",
"MMMMMMMMMMMMMMMMMM#######MMMMMMMMMMMMvvvvvvvvvvvvvvvvvvvvvvvvvvvvvvvvvvvvvvvvvvvvvvvvvvvvMMMMMMMMMMMM######MMMMMMMMMMMMMMMMMMMMM",
"MMMMMMMMMMMMMMMMMM#######MMMMMMMMMMMMMvvvvvvvvvvvvvvvvvvvvvvvvvvvvvvvvvvvvvvvvvvvvvvvvvvvvvvMMMMMMMMM######MMMMMMMMMMMMMMMMMMMMM",
"MMMMMMMMMMMMMMMMMM#######MMMMMMMMMMMMMMMvvvvvvvvvvvvvvvvvvvvvvvvvvvvvvvvvvvvvvvvvvvvvvvvvvvvvvMMMMMMM######MMMMMMMMMMMMMMMMMMMMM",
"MMMMMMMMMMMMMMMMMMM######MMMMMMMMMMMMMMMMvvvvvvvvvvvvvvvvvvvvvvvvvvvvvvvvvvvvvvvvvvvvvvvvvvvvvMMMMMMM######MMMMMMMMMMMMMMMMMMMMM",
"MMMMMMMMMMMMMMMMMMM######MMMMMMMMMMMMMMMMMvvvvvvvvvvvvvvvvvvvvvvvvvvvvvvvvvvvvvvvvvvvvvvvvvvvvMMMMMMM######MMMMMMMMMMMMMMMMMMMMM",
"MMMMMMMMMMMMMMMMMMM######MMMMMMMMMMMMMMMMMvvvvvvvvvvvvvvvvvvvvvvvvvvvvvvvvvvvvvvvvvvvvvvvvvvvvMMMMMMM######MMMMMMMMMMMMMMMMMMMMM",
"MMMMMMMMMMMMMMMMMMM######MMMMMMMMMMMMMMMMMMzvvvvvvvvvvvvvvvvvvvvvvvvvvvvvvvvvvvvvvvvvvvvvvvvvvMMMMMMM######MMMMMMMMMMMMMMMMMMMMM",
"MMMMMMMMMMMMMMMMMMM######MMMMMMMMMMMMMMMMMMvvvvvvvvvvvvvvvvvvvvvvvvvvvvvvvvvvvvvvvvvvvvvvvvvvvMMMMMM#######MMMMMMMMMMMMMMMMMMMMM",
"MMMMMMMMMMMMMMMMMMM######MMMMMMMMMMMMMMMMMMvvvvvvvvvvvvvvvvvvvvvvvvvvvvvvvvvvvvvvvvvvvvvvvvvvvMMMMMM#######MMMMMMMMMMMMMMMMMMMMM",
"MMMMMMMMMMMMMMMMMMM#######MMMMMMMMMMMMMMMMvvvvvvvvvvvvvvvvvvvvvvvvvvvvvvvvvvvvvvvvvvvvvvvvvvvvMMMMMM######MMMMMMMMMMMMMMMMMMMMMM",
"MMMMMMMMMMMMMMMMMMM#######MMMMMMMMMMMMMMMvvvvvvvvvvvvvvvvvvvvvvvvvvvvvvvvvvvvvvvvvvvvvvvvvvvvvMMMMMM######MMMMMMMMMMMMMMMMMMMMMM",
"MMMMMMMMMMMMMMMMMMMM######MMMMMMMMMMMMMMvvvvvvvvvvvvvvvvvvvvvvvvvvvvvvvvvvvvvvvvvvvvvvvvvvvvvvMMMMMM######MMMMMMMMMMMMMMMMMMMMMM",
"MMMMMMMMMMMMMMMMMMMM######MMMMMMMMMMMMMMvvvvvvvvvvvvvvvvvvvvvvvvvvvvvvvvvvvvvvvvvvvvvvvvvvvvvvMMMMM#######MMMMMMMMMMMMMMMMMMMMMM",
"MMMMMMMMMMMMMMMMMMMM#######MMMMMMMMMMMMvvvvvvvvvvvvvvvvvvvvvvvvvvvvvvvvvvvvvvvvvvvvvvvvvvvvvvvMMMMM######MMMMMMMMMMMMMMMMMMMMMMM",
"MMMMMMMMMMMMMMMMMMMMM######MMMMMMMMMMMvvvvvvvvvvvvvvvvvvvvvvvvvvvvvvvvvvvvvvvvvvvvvvvvvvvvvvvvMMMMM######MMMMMMMMMMMMMMMMMMMMMMM",
"MMMMMMMMMMMMMMMMMMMMM#######MMMMMMMMMvvvvvvvvvvvvvvvvvvvvvvvvvvvvvvvvvvvvvvvvvvvvvvvvvvvvvvvvvMMMM#######MMMMMMMMMMMMMMMMMMMMMMM",
"MMMMMMMMMMMMMMMMMMMMM#######MMMMMMMMMvvvvvvvvvvvvvvvvvvvvvvvvvvvvvvvvvvvvvvvvvvvvvvvvvvvvvvvvvMMMM######MMMMMMMMMMMMMMMMMMMMMMMM",
"MMMMMMMMMMMMMMMMMMMMMM#######MMMMMMMMvvvvvvvvvvvvvvvvvvvvvvvvvvvvvvvvvvvvvvvvvvvvvvvvvvvvvvvvvMMM#######MMMMMMMMMMMMMMMMMMMMMMMM",
"MMMMMMMMMMMMMMMMMMMMMM#######MMMMMMMMMvvvvvvvvvvvvvvvvvvvvvvvvvvvvvvvvvvvvvvvvvvvvvvvvvvvvvvvvMMM#######MMMMMMMMMMMMMMMMMMMMMMMM",
"MMMMMMMMMMMMMMMMMMMMMMM#######MMMMMMMMMvvvvvvvvvvvvvvvvMMvvvvvvvvvvvvvvvvvvvvvvvvvvvvvvvvvvvvvMM#######MMMMMMMMMMMMMMMMMMMMMMMMM",
"MMMMMMMMMMMMMMMMMMMMMMM#######MMMMMMMMMMvvvvvvvvvvvvvvMMMMvvvvvvvvvvvvvvvvvvvvvvvvvvvvvvvvvvvvMM#######MMMMMMMMMMMMMMMMMMMMMMMMM",
"MMMMMMMMMMMMMMMMMMMMMMMM#######MMMMMMMMMMvvvvvvvvvvvvvMMMMMvvvvvvvvvvvvvvvvvvvvvvvvvvvvvvvvvvmM+######MMMMMMMMMMMMMMMMMMMMMMMMMM",
"MMMMMMMMMMMMMMMMMMMMMMMM#######MMMMMMMMMMMvvvvvvvvvvvMMMMMMMvvvvvvvvvvvvvvvvvvvvvvvvvvvvvvvvvf:+######MMMMMMMMMMMMMMMMMMMMMMMMMM",
"MMMMMMMMMMMMMMMMMMMMMMMMM#######MMMMMMMMMMMvvvvvvvvvMMMMMMMMMvvvvvvvvvvvvvvvvvvvvvvvvvvvvvvvms;+#####MMMMMMMMMMMMMMMMMMMMMMMMMMM",
"MMMMMMMMMMMMMMMMMMMMMMMMM########MMMMMMMMMMMvvvvvvvMMMMMMMMMMMvvvvvvvvvvvvvvvvvvvvvvvvvvvvvvmu1+####MMMMMMMMMMMMMMMMMMMMMMMMMMMM",
"MMMMMMMMMMMMMMMMMMMMMMMMMM########MMMMMMMMMMMvvvvvvMMMMMMMMMMMMvvvvvvvvvvvvvvvvvvvvvvvvvvvvvma1+####MMMMMMMMMMMMMMMMMMMMMMMMMMMM",
"MMMMMMMMMMMMMMMMMMMMMMMMMMM########MMMMMMMMMMMvvvvMMMMMMMMMMMMMMvvvvvvvvvvvvvvvvvvvvvvvvvvvvma1+###MMMMMMMMMMMMMMMMMMMMMMMMMMMMM",
"MMMMMMMMMMMMMMMMMMMMMMMMMMM#########MMMMMMMMMMMvvMMMMMMMMMMMMMMMMvvvvvvvvvvvvvvvvvvvvvvvvvvvma1+##MMMMMMMMMMMMMMMMMMMMMMMMMMMMMM",
"MMMMMMMMMMMMMMMMMMMMMMMMMMMM#########MMMMMMMMMMMMMMMMMMMMMMMMMMMMMvvvvvvvvvvvvvvvvvvvvvvvvvvmu1+##MMMMMMMMMMMMMMMMMMMMMMMMMMMMMM",
"MMMMMMMMMMMMMMMMMMMMMMMMMMMMM#########MMMMMMMMMMMMMMMMMMMMMMMMMMMMMvvvvvvvvvvvvvvvvvvvvvvvvvmu1+#MMMMMMMMMMMMMMMMMMMMMMMMMMMMMMM",
"MMMMMMMMMMMMMMMMMMMMMMMMMMMMMM#########MMMMMMMMMMMMMMMMMMMMMMMMMMMMMvvvvvvvvvvvvvvvvvvvvvvvvmy<+MMMMMMMMMMMMMMMMMMMMMMMMMMMMMMMM",
"MMMMMMMMMMMMMMMMMMMMMMMMMMMMMMM#########MMMMMMMMMMMMMMMMMMMMMMMMMMMMMvvvvvvvvvvvvvvvvvvvvvvvmy>MMMMMMMMMMMMMMMMMMMMMMMMMMMMMMMMM",
"MMMMMMMMMMMMMMMMMMMMMMMMMMMMMMMM##########MMMMMMMMMMMMMMMMMMMMMMMMMMMMvvvvvvvvvvvvvvvvvvvvvvneMMMMMMMMMMMMMMMMMMMMMMMMMMMMMMMMMM",
"MMMMMMMMMMMMMMMMMMMMMMMMMMMMMMMMM##########MMMMMMMMMMMMMMMMMMMMMMMMMMMMvvvvvvvvvvvvvvvvvvvvvvvMMMMMMMMMMMMMMMMMMMMMMMMMMMMMMMMMM",
"MMMMMMMMMMMMMMMMMMMMMMMMMMMMMMMMMM###########MMMMMMMMMMMMMMMMMMMMMMMMMMMvvvvvvvvvvvvvvvvvvvvvvMMMMMMMMMMMMMMMMMMMMMMMMMMMMMMMMMM",
"MMMMMMMMMMMMMMMMMMMMMMMMMMMMMMMMMMM############MMMMMMMMMMMMMMMMMMMMMMMMMMvvvvvvvvvvvvvvvvvvvvvMMMMMMMMMMMMMMMMMMMMMMMMMMMMMMMMMM",
"MMMMMMMMMMMMMMMMMMMMMMMMMMMMMMMMMMMMM############MMMMMMMMMMMMMMMMMMMMMMMMMhvvvvvvvvvvvvvvvvvvvMMMMMMMMMMMMMMMMMMMMMMMMMMMMMMMMMM",
"MMMMMMMMMMMMMMMMMMMMMMMMMMMMMMMMMMMMMM###############MMMMMMMMMMMMMMMMMMMM$ invvvvvvvvvvvvvvvvvMMMMMMMMMMMMMMMMMMMMMMMMMMMMMMMMMM",
"MMMMMMMMMMMMMMMMMMMMMMMMMMMMMMMMMMMMMMM##################MMMMMMMMMMMM#####*4pnvvvvvvvvvvvvvvvvMMMMMMMMMMMMMMMMMMMMMMMMMMMMMMMMMM",
"MMMMMMMMMMMMMMMMMMMMMMMMMMMMMMMMMMMMMMMMM##################################*4invvvvvvvvvvvvvvvMMMMMMMMMMMMMMMMMMMMMMMMMMMMMMMMMM",
"MMMMMMMMMMMMMMMMMMMMMMMMMMMMMMMMMMMMMMMMMMM#################################*3abvvvvvvvvvvvvvvMMMMMMMMMMMMMMMMMMMMMMMMMMMMMMMMMM",
"MMMMMMMMMMMMMMMMMMMMMMMMMMMMMMMMMMMMMMMMMMMMM################################*5wnvvvvvvvvvvvvvMMMMMMMMMMMMMMMMMMMMMMMMMMMMMMMMMM",
"MMMMMMMMMMMMMMMMMMMMMMMMMMMMMMMMMMMMMMMMMMMMMMMM##############################MMvvvvvvvvvvvvvvMMMMMMMMMMMMMMMMMMMMMMMMMMMMMMMMMM",
"MMMMMMMMMMMMMMMMMMMMMMMMMMMMMMMMMMMMMMMMMMMMMMMMMMM########################MMMMMMvvvvvvvvvvvvvMMMMMMMMMMMMMMMMMMMMMMMMMMMMMMMMMM",
"MMMMMMMMMMMMMMMMMMMMMMMMMMMMMMMMMMMMMMMMMMMMMMMMMMMMMMM###############MMMMMMMMMMMMvvvvvvvvvvvvMMMMMMMMMMMMMMMMMMMMMMMMMMMMMMMMMM",
"MMMMMMMMMMMMMMMMMMMMMMMMMMMMMMMMMMMMMMMMMMMMMMMMMMMMMMMMMMMMMMMMMMMMMMMMMMMMMMMMMMMvvvvvvvvvvvMMMMMMMMMMMMMMMMMMMMMMMMMMMMMMMMMM",
"MMMMMMMMMMMMMMMMMMMMMMMMMMMMMMMMMMMMMMMMMMMMMMMMMMMMMMMMMMMMMMMMMMMMMMMMMMMMMMMMMMMMvvvvvvvvvvMMMMMMMMMMMMMMMMMMMMMMMMMMMMMMMMMM",
"MMMMMMMMMMMMMMMMMMMMMMMMMMMMMMMMMMMMMMMMMMMMMMMMMMMMMMMMMMMMMMMMMMMMMMMMMMMMMMMMMMMMMvvvvvvvvvMMMMMMMMMMMMMMMMMMMMMMMMMMMMMMMMMM",
"MMMMMMMMMMMMMMMMMMMMMMMMMMMMMMMMMMMMMMMMMMMMMMMMMMMMMMMMMMMMMMMMMMMMMMMMMMMMMMMMMMMMMMvvvvvvvvMMMMMMMMMMMMMMMMMMMMMMMMMMMMMMMMMM",
"MMMMMMMMMMMMMMMMMMMMMMMMMMMMMMMMMMMMMMMMMMMMMMMMMMMMMMMMMMMMMMMMMMMMMMMMMMMMMMMMMMMMMMMvvvvvvvMMMMMMMMMMMMMMMMMMMMMMMMMMMMMMMMMM",
"MMMMMMMMMMMMMMMMMMMMMMMMMMMMMMMMMMMMMMMMMMMMMMMMMMMMMMMMMMMMMMMMMMMMMMMMMMMMMMMMMMMMMMMMvvvvvvMMMMMMMMMMMMMMMMMMMMMMMMMMMMMMMMMM",
"MMMMMMMMMMMMMMMMMMMMMMMMMMMMMMMMMMMMMMMMMMMMMMMMMMMMMMMMMMMMMMMMMMMMMMMMMMMMMMMMMMMMMMMMMvvvvvMMMMMMMMMMMMMMMMMMMMMMMMMMMMMMMMMM",
"MMMMMMMMMMMMMMMMMMMMMMMMMMMMMMMMMMMMMMMMMMMMMMMMMMMMMMMMMMMMMMMMMMMMMMMMMMMMMMMMMMMMMMMMMMvvvvMMMMMMMMMMMMMMMMMMMMMMMMMMMMMMMMMM",
"MMMMMMMMMMMMMMMMMMMMMMMMMMMMMMMMMMMMMMMMMMMMMMMMMMMMMMMMMMMMMMMMMMMMMMMMMMMMMMMMMMMMMMMMMMMvvvMMMMMMMMMMMMMMMMMMMMMMMMMMMMMMMMMM",
"MMMMMMMMMMMMMMMMMMMMMMMMMMMMMMMMMMMMMMMMMMMMMMMMMMMMMMMMMMMMMMMMMMMMMMMMMMMMMMMMMMMMMMMMMMMMvvMMMMMMMMMMMMMMMMMMMMMMMMMMMMMMMMMM",
"MMMMMMMMMMMMMMMMMMMMMMMMMMMMMMMMMMMMMMMMMMMMMMMMMMMMMMMMMMMMMMMMMMMMMMMMMMMMMMMMMMMMMMMMMMMMMMMMMMMMMMMMMMMMMMMMMMMMMMMMMMMMMMMM",
"MMMMMMMMMMMMMMMMMMMMMMMMMMMMMMMMMMMMMMMMMMMMMMMMMMMMMMMMMMMMMMMMMMMMMMMMMMMMMMMMMMMMMMMMMMMMMMMMMMMMMMMMMMMMMMMMMMMMMMMMMMMMMMMM",
"MMMMMMMMMMMMMMMMMMMMMMMMMMMMMMMMMMMMMMMMMMMMMMMMMMMMMMMMMMMMMMMMMMMMMMMMMMMMMMMMMMMMMMMMMMMMMMMMMMMMMMMMMMMMMMMMMMMMMMMMMMMMMMMM",
"MMMMMMMMMMMMMMMMMMMMMMMMMMMMMMMMMMMMMMMMMMMMMMMMMMMMMMMMMMMMMMMMMMMMMMMMMMMMMMMMMMMMMMMMMMMMMMMMMMMMMMMMMMMMMMMMMMMMMMMMMMMMMMMM",
"MMMMMMMMMMMMMMMMMMMMMMMMMMMMMMMMMMMMMMMMMMMMMMMMMMMMMMMMMMMMMMMMMMMMMMMMMMMMMMMMMMMMMMMMMMMMMMMMMMMMMMMMMMMMMMMMMMMMMMMMMMMMMMMM",
"MMMMMMMMMMMMMMMMMMMMMMMMMMMMMMMMMMMMMMMMMMMMMMMMMMMMMMMMMMMMMMMMMMMMMMMMMMMMMMMMMMMMMMMMMMMMMMMMMMMMMMMMMMMMMMMMMMMMMMMMMMMMMMMM",
"MMMMMMMMMMMMMMMMMMMMMMMMMMMMMMMMMMMMMMMMMMMMMMMMMMMMMMMMMMMMMMMMMMMMMMMMMMMMMMMMMMMMMMMMMMMMMMMMMMMMMMMMMMMMMMMMMMMMMMMMMMMMMMMM",
"MMMMMMMMMMMMMMMMMMMMMMMMMMMMMMMMMMMMMMMMMMMMMMMMMMMMMMMMMMMMMMMMMMMMMMMMMMMMMMMMMMMMMMMMMMMMMMMMMMMMMMMMMMMMMMMMMMMMMMMMMMMMMMMM"
};
