/* XPM */
static char *bitcoin16[] = {
/* columns rows colors chars-per-pixel */
"16 16 15 1 ",
"  c #695D3F",
". c #4B4B4C",
"X c #4A4A4D",
"o c #4B4B4D",
"O c #8D732D",
"+ c #AB851D",
"@ c #D29D0B",
"# c #DDA306",
"$ c #E2A603",
"% c #E0A605",
"& c #E7A900",
"* c #E7AA00",
"= c #E8A900",
"- c #E8AA00",
"; c None",
/* pixels */
";;;;;;;;;;;;;;;;",
";;;;;;;;;;;;;;;;",
";;;;;;;;;;*-=;;;",
";;;;;oo;oO--;;;;",
";;;;o;;;;--+;;;;",
";;;o;;;;---;o;;;",
";;;;;-----;;X;;;",
";;o;-----*;;;;;;",
";;o;;-------;;;;",
";;X;;------*;;;;",
";;;.;------*o;;;",
";;;;;;;;---@;;;;",
";;;;.;;;;%-#;;;;",
";;;;;;Xoo $&;;;;",
";;;;;;;;;;;*;;;;",
";;;;;;;;;;;;;;;;"
};
