/* XPM */
static char *bitcoin32[] = {
/* columns rows colors chars-per-pixel */
"32 32 21 1 ",
"  c #6A5D3F",
". c #7A6736",
"X c #4A4A4C",
"o c #4B4B4C",
"O c #4A4A4D",
"+ c #4B4B4D",
"@ c #4C4C4C",
"# c #8C722D",
"$ c #977927",
"% c #9D7D25",
"& c #997A28",
"* c #A27F23",
"= c #B58C19",
"- c #BD9016",
"; c #DDA305",
": c #E5A901",
"> c #E7A900",
", c #E7AA00",
"< c #E8A900",
"1 c #E8AA00",
"2 c None",
/* pixels */
"22222222222222222222222222222222",
"22222222222222222222222222222222",
"22222222222222222222222222222222",
"22222222222222222222221122222222",
"222222222222222222222,1112222222",
"2222222222222+O++++2:1111<222222",
"2222222222O++++++++.111112222222",
"222222222++++22222 ;111122222222",
"22222222+++2222222,1111*22222222",
"2222222+++2222222>1111-@+2222222",
"222222++X222222221111,2++2222222",
"22222o+o2211222211111222++222222",
"22222++22<11112111112222++222222",
"22222+O221111111111122222+o22222",
"2222++O221111111111222222++22222",
"2222O+2221111111111122222++22222",
"2222O+2221111111111111,22++22222",
"2222o+2222,11111111111122++22222",
"2222+++222211111111111122++22222",
"22222++222111111111111122++22222",
"22222++22<11111111111112++222222",
"22222++O22,11,,11111111=++222222",
"222222+++22,,2221111111&+2222222",
"2222222+++2222222111111$+2222222",
"22222222++O222222211111*22222222",
"222222222+++o22222%1111222222222",
"2222222222+++++++++#111222222222",
"2222222222222++++o+2211222222222",
"22222222222222222222221222222222",
"22222222222222222222222222222222",
"22222222222222222222222222222222",
"22222222222222222222222222222222"
};
