/* XPM */
static char *bitcoin64[] = {
/* columns rows colors chars-per-pixel */
"64 64 25 1 ",
"  c #756539",
". c #4F4D4B",
"X c #4A4A4C",
"o c #4B4B4C",
"O c #4A4A4D",
"+ c #4B4B4D",
"@ c #4D4C4C",
"# c #585346",
"$ c #605842",
"% c #91752C",
"& c #836D31",
"* c #886F30",
"= c #A9841E",
"- c #BE9115",
"; c #C89610",
": c #D8A008",
"> c #E3A702",
", c #E7A900",
"< c #E6A901",
"1 c #E7A901",
"2 c #E7AA00",
"3 c #E4A802",
"4 c #E8A900",
"5 c #E8AA00",
"6 c None",
/* pixels */
"6666666666666666666666666666666666666666666666666666666666666666",
"6666666666666666666666666666666666666666666666666666666666666666",
"6666666666666666666666666666666666666666666666666666666666666666",
"6666666666666666666666666666666666666666666666666666666666666666",
"6666666666666666666666666666666666666666666666666666666666666666",
"6666666666666666666666666666666666666666666666666666666666666666",
"6666666666666666666666666666666666666666666665266666666666666666",
"6666666666666666666666666666666666666666666655556666666666666666",
"6666666666666666666666666666666666666666666555555566666666666666",
"6666666666666666666666666666666666666666665555555526666666666666",
"66666666666666666666666666666666666666666,5555555555666666666666",
"6666666666666666666666666+o+++++++++o+66655555555556666666666666",
"6666666666666666666666+o+++++++++++++++ <55555555566666666666666",
"666666666666666666666++++++++++Oo+++++#:555555555466666666666666",
"6666666666666666666++++++o66666666666@-5555555555666666666666666",
"666666666666666666+++++66666666666666655555555556666666666666666",
"6666666666666666+++++X666666666666666555555555566666666666666666",
"666666666666666+++++66666666666666662555555555=+6666666666666666",
"66666666666666+++++66666666666666665555555555;.+6666666666666666",
"66666666666666++++666666666666666655555555552$+++666666666666666",
"6666666666666++++66666666666666666555555555566++++66666666666666",
"666666666666O+++6666666666666666655555555556666+++X6666666666666",
"666666666666+++666655566666666665555555555566666+++6666666666666",
"66666666666++++666655555466666655555555555666666++++666666666666",
"66666666666+++66666555555546666555555555566666666+++666666666666",
"6666666666++++66666555555555,65555555555666666666o++666666666666",
"6666666666+++666665555555555555555555555666666666++++66666666666",
"6666666666+++6666655555555555555555555566666666666+++66666666666",
"6666666666++O6666655555555555555555555666666666666+++66666666666",
"666666666+++o6666655555555555555555555666666666666O++66666666666",
"666666666+++66666255555555555555555555546666666666o++X6666666666",
"666666666+++66666455555555555555555555555,666666666++o6666666666",
"666666666+++666666255555555555555555555555556666666+++6666666666",
"666666666O++6666666,5555555555555555555555555566666++o6666666666",
"666666666+++66666666,555555555555555555555555556666++O6666666666",
"666666666+++66666666625555555555555555555555555666O++X6666666666",
"666666666O+++6666666655555555555555555555555555666+++66666666666",
"6666666666++O6666666655555555555555555555555555666+++66666666666",
"6666666666+++6666666555555555555555555555555555666+++66666666666",
"6666666666+++666666555555555555555555555555555566+++O66666666666",
"6666666666+++o66665555555555555555555555555555566+++666666666666",
"66666666666+++66666555555555555555555555555555566+++666666666666",
"66666666666o++o666665555555655555555555555555556++++666666666666",
"666666666666+++66666655555266655555555555555555X+++6666666666666",
"666666666666o+++6666665555666665555555555555551+++66666666666666",
"6666666666666++++666666556666666555555555555553+++66666666666666",
"66666666666666+++O6666666666666665555555555555>++666666666666666",
"666666666666666+++O666666666666666555555555555>+6666666666666666",
"666666666666666X++++66666666666666655555555555>66666666666666666",
"66666666666666666++++o666666666666665555555555<66666666666666666",
"666666666666666666++++++6666666666666555555555566666666666666666",
"6666666666666666666+++++++o666666666O*,5555555566666666666666666",
"666666666666666666666+++++++++++++++++&,555555566666666666666666",
"66666666666666666666666++++++++++++++++%255555566666666666666666",
"66666666666666666666666666o+++++++++O666655555566666666666666666",
"6666666666666666666666666666666666666666665555566666666666666666",
"6666666666666666666666666666666666666666666555566666666666666666",
"6666666666666666666666666666666666666666666655566666666666666666",
"6666666666666666666666666666666666666666666665566666666666666666",
"6666666666666666666666666666666666666666666666566666666666666666",
"6666666666666666666666666666666666666666666666666666666666666666",
"6666666666666666666666666666666666666666666666666666666666666666",
"6666666666666666666666666666666666666666666666666666666666666666",
"6666666666666666666666666666666666666666666666666666666666666666"
};
